<svg id="Layer_1" data-name="Layer 1" xmlns="http://www.w3.org/2000/svg" viewBox="0 0 215.49 269.29"><defs><style>.cls-1,.cls-12{fill:#fe858e;}.cls-12,.cls-14,.cls-16,.cls-2,.cls-7{font-size:14px;font-family:Muli-Bold, Muli;font-weight:700;}.cls-2,.cls-6{fill:#ffca3a;}.cls-3{letter-spacing:-0.01em;}.cls-4{letter-spacing:0em;}.cls-5{letter-spacing:-0.01em;}.cls-7{fill:#670626;}.cls-8{letter-spacing:-0.01em;}.cls-9{letter-spacing:-0.01em;}.cls-10{letter-spacing:-0.01em;}.cls-11,.cls-14{fill:#7c9ed9;}.cls-13,.cls-16{fill:#16324f;}.cls-15{fill:#7d1d3f;}</style></defs><rect class="cls-1" y="161.57" width="215.49" height="53.86"/><text class="cls-2" transform="translate(61.77 184.19)"><tspan class="cls-3">R<tspan class="cls-4" x="9.76" y="0">GB #FE858E</tspan></tspan><tspan x="-11.74" y="16.8">C:0 M:48 </tspan><tspan class="cls-5" x="49.65" y="16.8">Y</tspan><tspan x="58.3" y="16.8">:44 K:0</tspan></text><rect class="cls-6" y="215.43" width="215.49" height="53.86"/><text class="cls-7" transform="translate(59.36 238.04)"><tspan class="cls-3">R</tspan><tspan class="cls-4" x="9.76" y="0">GB #F</tspan><tspan class="cls-8" x="50.09" y="0">F</tspan><tspan class="cls-9" x="57.96" y="0">C</tspan><tspan x="67.37" y="0">A3A</tspan><tspan x="-9.34" y="16.8">C:0 M:21 </tspan><tspan class="cls-10" x="52.07" y="16.8">Y</tspan><tspan class="cls-4" x="60.72" y="16.8">:77 K:0</tspan></text><rect class="cls-11" y="107.72" width="215.49" height="53.86"/><text class="cls-12" transform="translate(59.81 130.33)"><tspan class="cls-3">R<tspan class="cls-4" x="9.76" y="0">GB #7C9ED9</tspan></tspan><tspan x="-13.99" y="16.8">C:43 M:27 </tspan><tspan class="cls-5" x="55.82" y="16.8">Y</tspan><tspan x="64.47" y="16.8">:0 K:15</tspan></text><rect class="cls-13" y="53.86" width="215.49" height="53.86"/><text class="cls-14" transform="translate(61.69 76.47)"><tspan class="cls-3">R<tspan class="cls-4" x="9.76" y="0">GB #16324F</tspan></tspan><tspan x="-15.87" y="16.8">C:72 M:37 </tspan><tspan class="cls-5" x="53.93" y="16.8">Y</tspan><tspan x="62.59" y="16.8">:0 K:69</tspan></text><rect class="cls-15" width="215.49" height="53.86"/><text class="cls-16" transform="translate(59.43 22.61)"><tspan class="cls-3">R<tspan class="cls-4" x="9.76" y="0">GB #7D1D3F</tspan></tspan><tspan x="-13.6" y="16.8">C:0 M:77 </tspan><tspan class="cls-5" x="47.79" y="16.8">Y</tspan><tspan x="56.44" y="16.8">:50 K:51</tspan></text></svg>