<svg id="Layer_1" data-name="Layer 1" xmlns="http://www.w3.org/2000/svg" viewBox="0 0 418.83 445.52"><defs><style>.cls-1{fill:#ffca3a;}.cls-2{fill:#1d2e66;}</style></defs><path class="cls-1" d="M238.59,18.89V7.06A7.11,7.11,0,0,0,231.43,0h-44a7.1,7.1,0,0,0-7.15,7.06V18.79Z"/><path class="cls-1" d="M244.15,267.34l174.68-96.77L231.76,244.94q16.22-59.3,32.42-118.6L206,237.28q-48.36-70.49-96.71-141l72.94,153.1L59.85,215.77l114.94,58.78L0,369.17l187.93-71.64L153,412.42q29.8-53.79,59.6-107.57L303,445.52q-33.45-76.41-66.89-152.83L351,328.45Z"/><path class="cls-1" d="M253.15,66.75C196.48,68,171.77,70,161.06,71.61c1.35.29,3.63.77,5.23,1.07l-.83,7.53c-15.55-2.91-19-5.11-18.89-9.1.17-4.62,4.58-6.89,31.47-9,17.14-1.31,42.51-2.35,75.41-3.09Z"/><path class="cls-1" d="M158.68,126.66c-15.73-2.64-19.27-5.24-19.27-9.15,0-6.61,8.11-8.38,62-13.53,20.23-1.93,49.41-4.72,59.57-7.79-1.37-.48-3.52-.89-5.53-1.38l-1-8.26c12.62,2.89,17.11,5.73,17,9.89-.2,7.57-14.11,9.91-69.28,15.18-17.12,1.64-39.18,3.75-49.85,5.95,1.77.41,4.55.82,7.5,1.32Z"/><path class="cls-2" d="M161.7,47.55l.08.09c2.51,3,3.93,6.81,4.46,12.06l.1,1,1-.1c2.95-.31,6.44-.62,10.66-.94,17-1.31,42.12-2.34,74.61-3.08h.79l.17-.77a18.6,18.6,0,0,1,3.84-8.16l.07-.08a16.76,16.76,0,0,0,4-8.21,16.24,16.24,0,0,0-2.94-12.22c-3-3.75-7.62-5.16-27.78-5.61-7-.16-14.17-.16-21.2,0-7.05-.16-14.19-.16-21.23,0-20.38.45-24.82,1.8-27.79,5.61a16.37,16.37,0,0,0-2.93,12.22A16.64,16.64,0,0,0,161.7,47.55Z"/><path class="cls-2" d="M266.09,187.41c3.77,1.13,6.68,5.23,7,5.69s.4.63.9,1.48,1.48,2.51,3.33,5.58l1,1.7c4.66,7.73,7.74,12.83,9.61,16.06l.43.74L300.2,214l-.62-1c-.3-.5-.62-1-.95-1.53-4.47-7.2-7.1-10.78-9.42-13.95a108.73,108.73,0,0,1-7-10.53,169.13,169.13,0,0,1-10-20.09,165.46,165.46,0,0,1-7.73-21.18l-1-3.44L249.9,191.86l1.55-.28a11.79,11.79,0,0,0,4-1.42l.48-.28C257.7,188.77,262,186.17,266.09,187.41Z"/><path class="cls-2" d="M312.85,243.49c-.61-2.52-1.35-5.09-2.2-7.64l-.38-1.14-13,7.19.32,1.35a80.28,80.28,0,0,1,2.32,21.47,87.6,87.6,0,0,1-2.62,17.43c-.59,2.62-1.32,5.88-2.35,9.31l-.23.76,14.79,8.46.39-1.14a98,98,0,0,0,4.65-19.25A100.86,100.86,0,0,0,312.85,243.49Z"/><path class="cls-2" d="M159.92,118.13l-1.85,12.67c-.95,5.35-1.73,9-2.72,12.68-.81,3-1.73,6.05-2.74,9l-.16.48,14.74,21.48.8-.48a35.49,35.49,0,0,1,10.44-4.27c14.77-3.28,30.63,5,44.62,12.33,1.84,1,3.64,1.9,5.4,2.8l.88.45,30.84-58.85.15-.3-.05-.33c-.34-2-.7-4.25-1.11-6.74l-.84-5.12c-.34-2-.63-3.8-.89-5.43l-.17-1-1,.2c-10.83,2.09-28.58,4-53.7,6.4Z"/><path class="cls-2" d="M285,312.33c-1,1.54-2,2.93-2.84,4.09a88.09,88.09,0,0,1-13.65,15.69,81.91,81.91,0,0,1-7.8,6.1l-.68.47,7,16,1-.63c2.78-1.78,5.36-3.59,7.86-5.52a91.46,91.46,0,0,0,16.62-16.06A84.72,84.72,0,0,0,301.79,318l.55-1.06-16.88-5.25Z"/><path class="cls-2" d="M152.11,334.71a78.48,78.48,0,0,1-14-13.69l-.45-.57-15.4,5.87.71,1.05c1.2,1.76,2.41,3.41,3.72,5.05a91.58,91.58,0,0,0,16.62,16.07A109.45,109.45,0,0,0,163.81,361l1,.48,4.83-15.9-.77-.37A93.55,93.55,0,0,1,152.11,334.71Z"/><path class="cls-2" d="M236.58,350c-2.28.71-4.61,1.34-6.93,1.88a93,93,0,0,1-38.64.65l-.72-.14-8.36,15.1,1.27.31A110.56,110.56,0,0,0,206,370.88h.34c1.47.05,2.64.08,3.28.05h.69c.67,0,1.58,0,2.64-.06h.3a110.51,110.51,0,0,0,32.39-5.94l1.19-.42-9.5-14.78Z"/><path class="cls-2" d="M124.68,296.69a88.65,88.65,0,0,1-5.58-45.93l.1-.71-12.87-6.58-.29,1.25a100.72,100.72,0,0,0,4.87,59.16l.41,1.05L125,297.52Z"/><path class="cls-2" d="M125.28,229.24a107.07,107.07,0,0,1,7.4-13.58C139.6,204.38,143.12,198.89,147,194c.81-1,1.73-2.17,2.76-3.4l.4-.5-7-14.7-.91,1.83c-1.66,3.34-3.37,6.5-5.24,9.66a107.82,107.82,0,0,1-7,10.54c-2.32,3.16-4.95,6.75-9.42,13.95a136.7,136.7,0,0,0-7.9,14l-.5,1.08L124.93,230Z"/><path class="cls-2" d="M166.43,71.66l-1.49,13.28h0c-.55,4.68-1.24,9.89-1.9,15-.2,1.53-.41,3-.64,4.48l-.2,1.32,1.32-.18c8.34-1.09,19.28-2.26,37.79-4,15.61-1.49,36.79-3.52,50.11-5.77l4-.91-1.32-11-.19-1.4c-.56-5-.91-8.83-1.09-12.22l0-1"/></svg>