<svg id="Layer_1" data-name="Layer 1" xmlns="http://www.w3.org/2000/svg" viewBox="0 0 185.86 197.71"><defs><style>.cls-1{fill:#1d2e66;}</style></defs><path class="cls-1" d="M105.32,3.13A3.6,3.6,0,0,0,101.7-.44H82.19a3.6,3.6,0,0,0-3.62,3.57V8.78l26.75,0Z"/><path class="cls-1" d="M70.79,21.14a9.45,9.45,0,0,1,2,5.35l0,.45.44-.05c1.41-.15,3-.28,4.73-.41,7.54-.58,18.68-1,33.11-1.37h.35l.07-.34a8.23,8.23,0,0,1,1.74-3.65,7.48,7.48,0,0,0,1.8-3.65A7.19,7.19,0,0,0,113.75,12c-1.31-1.66-3.38-2.29-12.32-2.49-3.14-.07-6.31-.07-9.41,0s-6.32-.07-9.42,0c-9,.2-11,.8-12.34,2.49a7.09,7.09,0,0,0,.5,9.06Z"/><path class="cls-1" d="M115.92,63.12l-6,22,.69-.12a5.46,5.46,0,0,0,1.75-.63l.21-.13c.81-.49,2.7-1.64,4.53-1.1a7,7,0,0,1,3.11,2.53c.11.17.18.28.4.66s.66,1.12,1.47,2.47l.46.76c2.11,3.51,3.45,5.73,4.26,7.12L127,97,132.22,95l-.7-1.13c-2-3.19-3.15-4.78-4.18-6.19A47.36,47.36,0,0,1,124.23,83,76.76,76.76,0,0,1,119.78,74a74.23,74.23,0,0,1-3.43-9.4Z"/><path class="cls-1" d="M130.93,125.21c-.28,1.22-.59,2.62-1,4.13l-.1.34,6.56,3.75.17-.5a44.45,44.45,0,0,0,1.31-24.88c-.27-1.12-.6-2.26-1-3.39l-.17-.51-5.77,3.2.14.6a34.78,34.78,0,0,1,1,9.52A38.51,38.51,0,0,1,130.93,125.21Z"/><path class="cls-1" d="M124.23,140.42a38.49,38.49,0,0,1-6.06,7,33.72,33.72,0,0,1-3.46,2.7l-.3.21,3.1,7.09.44-.28c1.21-.78,2.38-1.6,3.49-2.45a41,41,0,0,0,7.37-7.13,38.17,38.17,0,0,0,4.12-6.39l.24-.47-7.49-2.34-.19.28C125.05,139.26,124.62,139.87,124.23,140.42Z"/><path class="cls-1" d="M72.15,160.4l2.15-7.06-.34-.16a41.24,41.24,0,0,1-7.46-4.65,34.59,34.59,0,0,1-6.22-6.07l-.21-.26-6.83,2.61.32.46c.53.78,1.07,1.52,1.65,2.25a41,41,0,0,0,7.37,7.13,48.55,48.55,0,0,0,9.11,5.53Z"/><path class="cls-1" d="M104,155.3c-1,.32-2,.6-3.07.84a41.31,41.31,0,0,1-17.15.29l-.32-.06-3.71,6.7.57.14a49.29,49.29,0,0,0,10.1,1.37h.15c.68,0,1.21,0,1.43,0h.33l1.31,0A48.82,48.82,0,0,0,108,162l.53-.19-4.21-6.56Z"/><path class="cls-1" d="M51.9,111,46.19,108l-.13.56a44.52,44.52,0,0,0,2.16,26.25l.18.47L54.48,132l-.15-.37a39.43,39.43,0,0,1-2.48-20.38Z"/><path class="cls-1" d="M57.88,95.7a93.92,93.92,0,0,1,6.35-9.59l1.22-1.51.18-.22-3.11-6.53-.4.82c-.74,1.48-1.5,2.89-2.33,4.28a48.29,48.29,0,0,1-3.11,4.68c-1,1.41-2.2,3-4.18,6.19A62.29,62.29,0,0,0,49,100l-.22.48,5.67,1.56.15-.35A47.34,47.34,0,0,1,57.88,95.7Z"/><path class="cls-1" d="M107.34,118.63l77.52-42.94-83,33Q109,82.38,116.23,56.07L90.43,105.3,47.51,42.74q16.2,34,32.38,67.94L25.56,95.75l51,26.08L-1,163.82,82.4,132,66.9,183l26.45-47.74q20.06,31.22,40.12,62.43l-29.69-67.83,51,15.87Z"/><path class="cls-1" d="M119.46,42.8c.05-1.85-1.92-3.15-7.52-4.43-.31-2.81-.69-6.33-.73-7.21l0-.42h-.43L72.85,31.8l0,.37c-.71-.13-1.74-.26-2.34-.39,4.76-.71,15.72-1.59,40.87-2.16l.13-3.41c-14.6.33-25.86.79-33.46,1.37-11.93.92-13.89,1.92-14,4-.07,1.77,1.49,2.78,8.39,4.07l-.23,2.06h0c-.24,2-.53,4.21-.85,6.64-.08.68-.18,1.33-.28,2L71,46.9l.59-.07c3.7-.49,8.56-1,16.79-1.79,6.92-.67,16.31-1.56,22.22-2.56l1.79-.39c.9.22,1.84.38,2.45.6-4.52,1.36-17.47,2.6-26.44,3.45-23.91,2.29-27.51,3.07-27.52,6,0,1.73,1.6,2.86,8.56,4l-.28,1.89c-.42,2.37-.76,4-1.2,5.6-.36,1.34-.77,2.69-1.22,4l-.07.21,6.54,9.53.36-.21a15.75,15.75,0,0,1,4.63-1.9c6.56-1.45,13.6,2.23,19.8,5.48l2.4,1.24.39.2L114.52,56l-1.36-8.27-.45.09c-4.82.93-12.38,1.74-23.84,2.84L70,52.42l-3.38-.25c4.74-1,14.53-1.91,22.12-2.64C113.19,47.19,119.37,46.16,119.46,42.8Z"/></svg>