<svg id="Layer_1" data-name="Layer 1" xmlns="http://www.w3.org/2000/svg" viewBox="0 0 436.57 299.01"><defs><style>.cls-1{fill:#ffca3a;}.cls-2,.cls-3{fill:#1d2e66;}.cls-3{stroke:#1d2e66;stroke-miterlimit:10;stroke-width:0.75px;}</style></defs><path class="cls-1" d="M319.67,22.88V15.21A4.6,4.6,0,0,0,315,10.64H286.55a4.6,4.6,0,0,0-4.63,4.57v7.6Z"/><path class="cls-1" d="M323.27,183.8l113.14-62.68L315.25,169.29l21-76.82-37.66,71.86L236,73l47.25,99.16L203.9,150.4l74.45,38.07L165.14,249.75l121.72-46.4-22.61,74.42,38.6-69.68,58.55,91.12q-21.66-49.5-43.33-99l74.43,23.16Z"/><path class="cls-1" d="M329.1,53.88C292.4,54.7,276.39,56,269.46,57c.87.2,2.35.5,3.38.7l-.54,4.88c-10.07-1.89-12.33-3.31-12.23-5.9.11-3,3-4.46,20.38-5.8,11.1-.85,27.54-1.53,48.84-2Z"/><path class="cls-1" d="M267.92,92.68c-10.2-1.71-12.49-3.39-12.49-5.93,0-4.28,5.26-5.42,40.16-8.76,13.1-1.25,32-3.06,38.59-5-.89-.31-2.29-.58-3.59-.9l-.65-5.35c8.18,1.87,11.08,3.71,11,6.41-.13,4.9-9.14,6.41-44.87,9.83C285,84,270.7,85.37,263.79,86.8c1.14.26,2.95.53,4.86.85Z"/><path class="cls-2" d="M269.87,41.44l.05.06a13.64,13.64,0,0,1,2.89,7.81l.07.65.64-.07c1.92-.2,4.18-.39,6.91-.6,11-.85,27.28-1.52,48.33-2h.5l.11-.49a12.05,12.05,0,0,1,2.49-5.29l.05,0a10.83,10.83,0,0,0,2.62-5.32,10.51,10.51,0,0,0-1.9-7.92c-1.93-2.42-4.94-3.34-18-3.63-4.55-.1-9.18-.1-13.73,0-4.56-.1-9.19-.1-13.75,0-13.2.29-16.07,1.17-18,3.64a10.35,10.35,0,0,0,.72,13.22Z"/><path class="cls-2" d="M337.48,132c2.44.73,4.33,3.38,4.54,3.68s.26.41.58,1,1,1.63,2.15,3.62l.67,1.1c3,5,5,8.31,6.22,10.4l.28.48,7.66-3-.41-.66c-.19-.32-.4-.65-.61-1-2.9-4.66-4.6-7-6.1-9a68.55,68.55,0,0,1-4.54-6.83,107.72,107.72,0,0,1-6.49-13,107.15,107.15,0,0,1-5-13.71l-.64-2.23L327,134.91l1-.18a7.53,7.53,0,0,0,2.56-.92l.31-.18C332.05,132.91,334.82,131.23,337.48,132Z"/><path class="cls-2" d="M367.77,168.35c-.39-1.63-.87-3.3-1.42-4.95l-.25-.74-8.42,4.66.21.88a51.22,51.22,0,0,1,1.5,13.9,56.35,56.35,0,0,1-1.69,11.29c-.38,1.7-.86,3.81-1.53,6l-.14.49,9.58,5.48.25-.73a63.49,63.49,0,0,0,3-12.47A65.32,65.32,0,0,0,367.77,168.35Z"/><path class="cls-2" d="M268.72,87.16l-1.2,8.2c-.62,3.47-1.12,5.81-1.76,8.21-.53,2-1.12,3.92-1.78,5.86l-.1.3,9.54,13.91.53-.31a22.81,22.81,0,0,1,6.76-2.76c9.57-2.12,19.84,3.25,28.9,8,1.19.62,2.35,1.23,3.49,1.81l.57.29,20-38.11.1-.2,0-.21c-.22-1.32-.45-2.76-.72-4.37l-.54-3.31c-.22-1.32-.41-2.47-.58-3.52l-.1-.66-.66.12c-7,1.36-18.51,2.6-34.78,4.15Z"/><path class="cls-2" d="M349.76,212.94c-.67,1-1.3,1.9-1.84,2.65a57.34,57.34,0,0,1-8.84,10.16A52,52,0,0,1,334,229.7l-.44.3,4.53,10.34.64-.41c1.8-1.15,3.47-2.32,5.09-3.57A59,59,0,0,0,354.6,226a54.35,54.35,0,0,0,6-9.33l.35-.68L350,212.54Z"/><path class="cls-2" d="M263.66,227.44a51.21,51.21,0,0,1-9.09-8.87l-.29-.37-10,3.8.46.68c.78,1.14,1.57,2.21,2.42,3.27a59,59,0,0,0,10.76,10.41,70.8,70.8,0,0,0,13.29,8.08l.68.31L275,234.46l-.5-.25A60.36,60.36,0,0,1,263.66,227.44Z"/><path class="cls-2" d="M318.37,237.32c-1.48.46-3,.87-4.49,1.21A60.09,60.09,0,0,1,298.46,240a61.33,61.33,0,0,1-9.61-1.08l-.46-.09L283,248.65l.83.2a71.84,71.84,0,0,0,14.74,2h.22c.95,0,1.72,0,2.13,0h.45c.43,0,1,0,1.7,0h.2a71.1,71.1,0,0,0,21-3.85l.77-.27-6.15-9.57Z"/><path class="cls-2" d="M245.89,202.81a57.54,57.54,0,0,1-3.61-29.75l.06-.46L234,168.34l-.19.81A65.26,65.26,0,0,0,237,207.47l.27.67,8.87-4.8Z"/><path class="cls-2" d="M246.28,159.12a69.18,69.18,0,0,1,4.79-8.79c4.49-7.31,6.77-10.87,9.27-14,.53-.65,1.12-1.4,1.79-2.2l.26-.32-4.54-9.53-.59,1.19c-1.07,2.16-2.18,4.21-3.39,6.26a71.9,71.9,0,0,1-4.54,6.82c-1.51,2.05-3.21,4.38-6.11,9a88.37,88.37,0,0,0-5.11,9.08l-.33.7,8.28,2.27Z"/><path class="cls-2" d="M272.93,57.06l-1,8.6h0c-.36,3-.81,6.41-1.24,9.69-.13,1-.26,1.93-.41,2.9l-.13.85.86-.11c5.4-.71,12.49-1.46,24.47-2.61,10.11-1,23.83-2.28,32.46-3.74l2.6-.59-.85-7.1-.12-.9c-.37-3.21-.59-5.72-.71-7.92l0-.63"/><path class="cls-2" d="M160.42,18.05l.28,7.05h-.53A21.91,21.91,0,0,0,158,20a3.14,3.14,0,0,0-2.75-1.36h-.34v18.5h2.39v.59H147v-.59h2.39V18.64H149a3.18,3.18,0,0,0-2.78,1.42,21,21,0,0,0-2.17,5h-.53l.28-7Z"/><path class="cls-2" d="M162,16.64h6.78V26.93a4.71,4.71,0,0,1,1.38-2.08,4.28,4.28,0,0,1,2.81-.79q4.37,0,4.36,4.7v8.46h1.57v.51H171v-.51h1.15V28.08a6.36,6.36,0,0,0-.23-2.17.82.82,0,0,0-.81-.5c-.6,0-1.13.4-1.59,1.18a5.62,5.62,0,0,0-.69,2.87v7.76H170v.51h-8v-.51h1.55V17.15H162Z"/><path class="cls-2" d="M181.3,36.14a7.16,7.16,0,0,1-1.81-5.2,6.42,6.42,0,0,1,2-5.11,7.63,7.63,0,0,1,5.19-1.77q6.39,0,6.13,6.41h-7.93v1.1a9.55,9.55,0,0,0,.71,4.16,2.49,2.49,0,0,0,2.44,1.41c2.18,0,3.6-1.16,4.28-3.49l.5.09a5.82,5.82,0,0,1-1.92,3.15A6.56,6.56,0,0,1,186.74,38,7.24,7.24,0,0,1,181.3,36.14Zm3.64-6.23h2.9V28.53a11.71,11.71,0,0,0-.27-3.1,1,1,0,0,0-1.07-.83,1.24,1.24,0,0,0-1.18.88,8.64,8.64,0,0,0-.38,3.05Z"/><path class="cls-2" d="M93.29,43.16h8.82V69.51h2v.65H93.44v-.65h2V43.81H93.29Z"/><path class="cls-2" d="M114.89,53.31A2.35,2.35,0,0,0,112.63,55a16.87,16.87,0,0,0-.69,5.72v1.88a12.14,12.14,0,0,0,.79,5.11,3,3,0,0,0,2.92,1.55A4.26,4.26,0,0,0,119,67.86a7,7,0,0,0,1.62-3.28l.65.07a7.23,7.23,0,0,1-2.52,4.47,8.45,8.45,0,0,1-5.15,1.4,8.61,8.61,0,0,1-6.4-2.25Q105,66,105,61.68A8.65,8.65,0,0,1,107.53,55a10,10,0,0,1,7.08-2.34,8.17,8.17,0,0,1,4.89,1.25A3.71,3.71,0,0,1,121.19,57a3.92,3.92,0,0,1-.81,2.74,2.92,2.92,0,0,1-2.23.86,3.29,3.29,0,0,1-2.28-.76,2.78,2.78,0,0,1-.87-2.23,4.78,4.78,0,0,1,.18-1.29h1.19a3.91,3.91,0,0,0,.25-1.3A1.53,1.53,0,0,0,114.89,53.31Z"/><path class="cls-2" d="M121.84,43.16h8.68V56.34a6,6,0,0,1,1.76-2.67,5.46,5.46,0,0,1,3.6-1q5.58,0,5.58,6V69.51h2v.65H133.29v-.65h1.48V57.81a8.34,8.34,0,0,0-.29-2.79,1,1,0,0,0-1-.63c-.76,0-1.44.51-2,1.51a7.19,7.19,0,0,0-.88,3.68v9.93h1.55v.65H121.84v-.65h2V43.81h-2Z"/><path class="cls-2" d="M146.52,68.13a9.17,9.17,0,0,1-2.32-6.66,8.19,8.19,0,0,1,2.61-6.54,9.76,9.76,0,0,1,6.64-2.27q8.18,0,7.85,8.21H151.15v1.41a12.36,12.36,0,0,0,.9,5.33,3.19,3.19,0,0,0,3.13,1.79c2.78,0,4.61-1.48,5.47-4.46l.65.11a7.45,7.45,0,0,1-2.47,4,8.38,8.38,0,0,1-5.34,1.44Q148.84,70.52,146.52,68.13Zm4.66-8h3.71V58.39a15.13,15.13,0,0,0-.34-4,1.35,1.35,0,0,0-1.37-1.06,1.6,1.6,0,0,0-1.51,1.13,10.84,10.84,0,0,0-.49,3.91Z"/><path class="cls-2" d="M162.59,53h8.68v3.32a5,5,0,0,1,5.24-3.68,4.53,4.53,0,0,1,4.91,3.89,5.12,5.12,0,0,1,5.29-3.89q5.29,0,5.3,6V69.51h2v.65h-10v-.65h1.26V57.81c0-1.82-.16-2.89-.47-3.2a.74.74,0,0,0-.57-.22c-.7,0-1.31.47-1.84,1.41a7.13,7.13,0,0,0-.79,3.56V69.51h1.29v.65h-9.25v-.65h1.26V57.81c0-1.82-.15-2.89-.47-3.2a.74.74,0,0,0-.57-.22c-.67,0-1.28.51-1.82,1.53a7.73,7.73,0,0,0-.81,3.66v9.93h1.3v.65h-10v-.65h2V53.67h-2Z"/><path class="cls-2" d="M192.58,53.67V53H203v.65h-1.94l3.92,12,4.18-12h-2.41V53h5.07v.65H210l-6.73,19.41a11.76,11.76,0,0,1-2.66,4.73,5.16,5.16,0,0,1-3.6,1.35,5.22,5.22,0,0,1-3.35-1,3,3,0,0,1-1.23-2.49,3.12,3.12,0,0,1,.8-2.3,2.79,2.79,0,0,1,2.08-.79c2,0,3,.83,3,2.48a5,5,0,0,1-.21,1.3h-1.26a2,2,0,0,0-.08,1.37.94.94,0,0,0,1,.54,3.31,3.31,0,0,0,2.62-1.46,15.77,15.77,0,0,0,2.2-4.45l.79-2.23h-3.17l-6.15-16.49Z"/><path class="cls-2" d="M221,68.22a8.94,8.94,0,0,1-2.31-6.61A8.61,8.61,0,0,1,221.15,55a9.7,9.7,0,0,1,6.93-2.33q4.46,0,6.66,2.15t2.19,6.53q0,9.18-9.14,9.18Q223.29,70.52,221,68.22Zm9-5.15V60a24,24,0,0,0-.38-5.1c-.25-1.06-.83-1.6-1.74-1.6a1.8,1.8,0,0,0-1.28.45,2.77,2.77,0,0,0-.7,1.5,26.86,26.86,0,0,0-.33,4.93V63a24.87,24.87,0,0,0,.24,4.71,7.52,7.52,0,0,0,.48,1.3,1.55,1.55,0,0,0,1.55.86,1.84,1.84,0,0,0,1.84-1.62A25.37,25.37,0,0,0,230,63.07Z"/><path class="cls-2" d="M248.85,42.94a1.76,1.76,0,0,0-1.8,1,9.07,9.07,0,0,0-.43,3.29V53h4.75v.65h-4.75V69.51H251v.65H237.94v-.65h2V53.67h-2.09V53h2.09v-.14q0-5.19,2-7.87c1.32-1.78,3.53-2.68,6.63-2.68,2,0,3.5.4,4.39,1.21a3.68,3.68,0,0,1,1.33,2.79,3.12,3.12,0,0,1-.83,2.37,3,3,0,0,1-2.2.8,2.92,2.92,0,0,1-2.1-.71,2.16,2.16,0,0,1-.74-1.62,7.06,7.06,0,0,1,.22-1.78H250C250.45,43.76,250.07,42.94,248.85,42.94Z"/><path class="cls-2" d="M121.59,124.58V113.24h-2v-.64h2V108l6.7-1.65v6.3H133v.64h-4.68v12.14a6.62,6.62,0,0,0,.34,2.48,1.38,1.38,0,0,0,1.42.79,2.34,2.34,0,0,0,1.89-1.08,6.16,6.16,0,0,0,1.06-2.95l.62.07a7,7,0,0,1-1.59,3.94c-.86,1-2.29,1.46-4.28,1.46a7.43,7.43,0,0,1-4.57-1.19Q121.59,127.72,121.59,124.58Z"/><path class="cls-2" d="M142.62,121.27h1V118.5a18,18,0,0,0-.38-4.59,1.46,1.46,0,0,0-1.46-1.17,2.08,2.08,0,0,0-1.17.34,1.06,1.06,0,0,0-.52.94,3.43,3.43,0,0,0,.22,1.2h.9a5.22,5.22,0,0,1,.29,1.82,2.37,2.37,0,0,1-.91,1.84,3.35,3.35,0,0,1-2.26.77c-2.07,0-3.1-1-3.1-3q0-4.43,7.52-4.42,4.29,0,5.93,1.45t1.64,5.35v7.31c0,1.25.34,1.87,1,1.87s1.3-1.24,1.44-3.71l.54,0c-.1,2.11-.49,3.56-1.19,4.35a4.3,4.3,0,0,1-3.42,1.19c-2.88,0-4.53-.88-5-2.66a3.87,3.87,0,0,1-1.4,2,4.76,4.76,0,0,1-2.74.65q-5.32,0-5.33-4.35a3.51,3.51,0,0,1,2-3.51A15.37,15.37,0,0,1,142.62,121.27Zm-1.25,6.84a.75.75,0,0,0,.76.54c.37,0,.72-.3,1-.92a5.36,5.36,0,0,0,.49-2.53v-3.35h-.25c-1.49,0-2.24,1.09-2.24,3.27v.58A8.93,8.93,0,0,0,141.37,128.11Z"/><path class="cls-2" d="M165.76,113.6a2.86,2.86,0,0,0-2.34,1.73,8,8,0,0,0-1,4.11v9.64H165v.65H153.74v-.65h2V113.24h-2v-.64h8.68v3.45a4.85,4.85,0,0,1,4.82-3.81,3.92,3.92,0,0,1,2.75,1,3.45,3.45,0,0,1,1.07,2.7,4,4,0,0,1-.8,2.68,3,3,0,0,1-2.43.94,2.77,2.77,0,0,1-2.41-1.08,3.37,3.37,0,0,1-.2-3h1.3C167.12,114.22,166.87,113.6,165.76,113.6Z"/><path class="cls-2" d="M173.36,124.58V113.24h-2v-.64h2V108l6.7-1.65v6.3h4.68v.64h-4.68v12.14a6.62,6.62,0,0,0,.34,2.48,1.38,1.38,0,0,0,1.42.79,2.34,2.34,0,0,0,1.89-1.08,6.26,6.26,0,0,0,1.06-2.95l.61.07a7,7,0,0,1-1.58,3.94c-.86,1-2.29,1.46-4.28,1.46a7.49,7.49,0,0,1-4.58-1.19C173.89,128.11,173.36,126.67,173.36,124.58Z"/><path class="cls-2" d="M206.62,129.73h-8.2l-.4-2.63a4.76,4.76,0,0,1-1.71,2.22,6.06,6.06,0,0,1-3.37.77q-5.58,0-5.58-6V113.24h-2v-.64h8.71v12.34a8.23,8.23,0,0,0,.31,2.85,1.2,1.2,0,0,0,1.22.68,2,2,0,0,0,1.64-1.11,5.71,5.71,0,0,0,.72-3.1v-11h-1.66v-.64h8.35v16.48h2Z"/><path class="cls-2" d="M216,112.6v2.84a5,5,0,0,1,5-3.2,5.69,5.69,0,0,1,4.8,2.23c1.14,1.49,1.71,3.74,1.71,6.77s-.62,5.25-1.85,6.69a6.93,6.93,0,0,1-5.56,2.16,6,6,0,0,1-2.6-.43,3.43,3.43,0,0,1-1.4-1.33v9.32h4.64v.65H207.34v-.65h2V113.24h-1.9v-.64Zm4.17,2.46c-.24-.85-.7-1.28-1.4-1.28a2.29,2.29,0,0,0-1.87,1.35,6.81,6.81,0,0,0-.83,3.62v6.59a5.25,5.25,0,0,0,.61,2.63,2,2,0,0,0,1.8,1.08c.79,0,1.33-.53,1.62-1.58a24.11,24.11,0,0,0,.43-5.55v-1.87A22.23,22.23,0,0,0,220.12,115.06Z"/><path class="cls-2" d="M60.63,176.23A2.83,2.83,0,0,0,58.29,178a8,8,0,0,0-1,4.1v9.65h2.56v.65H48.61v-.65h2V175.87h-2v-.65h8.67v3.46a4.86,4.86,0,0,1,1.8-2.83,5,5,0,0,1,3-1,4,4,0,0,1,2.75,1,3.42,3.42,0,0,1,1.06,2.7,4,4,0,0,1-.79,2.68,3,3,0,0,1-2.43.94,2.78,2.78,0,0,1-2.41-1.08,3.31,3.31,0,0,1-.2-3h1.29C62,176.84,61.73,176.23,60.63,176.23Z"/><path class="cls-2" d="M68.75,190.32a9.14,9.14,0,0,1-2.33-6.66A8.16,8.16,0,0,1,69,177.13a9.75,9.75,0,0,1,6.64-2.27q8.16,0,7.84,8.21H73.37v1.4a12.3,12.3,0,0,0,.9,5.33,3.21,3.21,0,0,0,3.13,1.8c2.79,0,4.61-1.49,5.48-4.46l.64.11a7.41,7.41,0,0,1-2.46,4,8.39,8.39,0,0,1-5.35,1.44C72.62,192.72,70.29,191.92,68.75,190.32Zm4.66-8h3.71v-1.76a15,15,0,0,0-.35-4,1.33,1.33,0,0,0-1.36-1.06,1.61,1.61,0,0,0-1.52,1.13,11.12,11.12,0,0,0-.48,3.91Z"/><path class="cls-2" d="M93.46,183.9h1v-2.77a18.09,18.09,0,0,0-.37-4.59,1.47,1.47,0,0,0-1.46-1.17,2.08,2.08,0,0,0-1.17.34,1.06,1.06,0,0,0-.52.93,3.71,3.71,0,0,0,.21,1.21h.9a4.93,4.93,0,0,1,.29,1.82,2.36,2.36,0,0,1-.9,1.84,3.39,3.39,0,0,1-2.27.77q-3.09,0-3.09-3c0-2.95,2.5-4.43,7.52-4.43q4.29,0,5.92,1.46t1.64,5.35V189c0,1.25.35,1.88,1,1.88s1.3-1.24,1.44-3.71l.54,0c-.09,2.11-.49,3.56-1.18,4.35a4.36,4.36,0,0,1-3.42,1.19q-4.32,0-5-2.66a3.82,3.82,0,0,1-1.41,2,4.78,4.78,0,0,1-2.73.65q-5.33,0-5.33-4.36a3.54,3.54,0,0,1,2-3.51A15.61,15.61,0,0,1,93.46,183.9Zm-1.24,6.84a.74.74,0,0,0,.75.54c.38,0,.73-.31,1-.92a5.55,5.55,0,0,0,.48-2.54v-3.35h-.25c-1.49,0-2.23,1.1-2.23,3.28v.58A9,9,0,0,0,92.22,190.74Z"/><path class="cls-2" d="M105.84,187.21V175.87h-2v-.65h2v-4.64l6.7-1.66v6.3h4.68v.65h-4.68V188a6.68,6.68,0,0,0,.34,2.49,1.39,1.39,0,0,0,1.42.79,2.34,2.34,0,0,0,1.89-1.08,6.3,6.3,0,0,0,1.07-2.95l.61.07a6.94,6.94,0,0,1-1.59,3.94c-.86,1-2.29,1.46-4.28,1.46a7.52,7.52,0,0,1-4.57-1.19Q105.84,190.35,105.84,187.21Z"/><path class="cls-2" d="M118.08,175.22h8.82v16.49h2v.65H118.23v-.65h2V175.87h-2.13Zm5.44-2.48a3.39,3.39,0,0,1-2.72-1,3.67,3.67,0,0,1-.81-2.42,3.34,3.34,0,0,1,.88-2.37,3.52,3.52,0,0,1,2.69-.94,4,4,0,0,1,2.73.85,3.06,3.06,0,0,1,.94,2.41,3.44,3.44,0,0,1-.9,2.5A3.72,3.72,0,0,1,123.52,172.74Z"/><path class="cls-2" d="M132.23,190.41q-2.29-2.29-2.3-6.6a8.68,8.68,0,0,1,2.46-6.63,9.77,9.77,0,0,1,6.93-2.32q4.47,0,6.66,2.15t2.2,6.53q0,9.18-9.14,9.18Q134.54,192.72,132.23,190.41Zm9-5.14v-3.06a24.65,24.65,0,0,0-.38-5.1c-.25-1.06-.83-1.6-1.75-1.6a1.79,1.79,0,0,0-1.27.45,2.77,2.77,0,0,0-.71,1.49,28.14,28.14,0,0,0-.32,4.94v2.8a26.43,26.43,0,0,0,.23,4.72,8.36,8.36,0,0,0,.49,1.3,1.54,1.54,0,0,0,1.55.86,1.83,1.83,0,0,0,1.83-1.62A24.44,24.44,0,0,0,141.27,185.27Z"/><path class="cls-2" d="M149.26,175.22h8.68v3.31a6,6,0,0,1,1.76-2.66,5.46,5.46,0,0,1,3.6-1c3.72,0,5.58,2,5.58,6v10.84h2v.65H160.71v-.65h1.47V180a8.43,8.43,0,0,0-.28-2.79,1.06,1.06,0,0,0-1.05-.63c-.77,0-1.44.51-2,1.51a7.15,7.15,0,0,0-.88,3.67v9.94h1.54v.65H149.26v-.65h2V175.87h-2Z"/><path class="cls-3" d="M80.17,14.6c0-2.36.31-5.55,2.67-5.55S84,17.17,84.69,22.41c3.6,4.42,9.25,5,9.25,11.41,0,7.09-2,14.7-4.11,22.1a9.93,9.93,0,0,0,6.37-2.57l.31.41c-.1,2.26-4.83,4.93-7.81,5.65C86,67.94,83.46,76,83.46,82.43c0,1.64.82,3.49,2.46,3.49,5.24,0,9-12.23,9.77-14.49h.92c-1.85,6.79-5.75,19-15.31,19-3.8,0-6.68-2.26-6.68-7.19,0-5.75,3.08-14.49,6.37-23.43L72.67,60C63.93,76.47,51,89.83,34.33,89.83c-11.81,0-20.76-8.22-20.76-22.82,0-18.29,17.37-33.5,32.89-33.5,7.19,0,14.7,4.11,14.7,11.31a33.3,33.3,0,0,1-.52,4.52H59.41a28.75,28.75,0,0,0,.41-4.11c0-5.45-7.5-9.46-14.18-9.46-13.67,0-29.5,13.46-29.5,29.39,0,11.41,8.12,20.56,20,20.56,16.14,0,28.47-14.7,34.53-25.59V60l-7.5.2c-3.49.1-6.16,1.34-7.6,3.91l-.93-.41A12.12,12.12,0,0,1,65.88,56h7C79.14,43.27,82,29.71,82.43,23.44,81.5,20,80.17,18.2,80.17,14.6Zm2.26,41.32c3.49-9.46,6.88-18.61,6.88-24,0-3.19-2.15-6.27-4.11-6.27a1.46,1.46,0,0,0-1.13.72A114.84,114.84,0,0,1,74.72,56Z"/><path class="cls-3" d="M28.13,166.07c-2.26,1.65-3.8,3.29-3.8,6.37,0,3.8,2.26,6.89,6.27,6.89,9.66,0,17.16-15.72,17.16-24.26,0-5-2.36-9.24-7.81-9.24-17.27,0-37,33.6-37,56.72,0,10.18,5.24,21.38,16.55,21.38,18.5,0,30.11-25.18,32.06-40.08.82,2,2.47,5.14,2.47,7.3,0,4.21-3.08,10.48-4.52,13.46-6,12.23-16.24,21.68-29.81,21.79C6.86,226.5,1,214.78,1,202.86c0-23.63,20.25-59.19,41.11-59.19,7.71,0,12,5.75,12,13.05,0,11.61-8.12,29.08-21.48,29.08-5.55,0-10.48-4.31-10.48-10A12.63,12.63,0,0,1,28.64,165Z"/><path class="cls-3" d="M115.54,87c.93-.82,3.7-1.85,3.7-5.86s-3.19-6.78-7.3-6.78c-5.24,0-7.81,4.93-7.81,9.76,0,14,21,27.75,21,49.95,0,16.65-8.74,27.85-25.38,30.93-2.06,5.76-6.58,9.56-13.16,9.56a15.74,15.74,0,0,1-6.68-1.95l-.1-.72a18.27,18.27,0,0,0,7,1.54A12.17,12.17,0,0,0,98.28,165c-21.69.62-48-23.43-48-45.63,0-7.5,5.24-15.21,13.26-15.21,22.82,0,40.9,36.59,36.59,59.3,11.61-2.16,20.55-10,20.55-22.4,0-18.71-21.68-33.71-21.68-52.31,0-7.92,7.09-16.65,15.31-16.65,3.9,0,7.81,3.29,7.81,7.3s-3.39,6.88-6.58,8.42ZM62.82,107.11c-6.68,0-11.51,6-11.51,12.23,0,22.1,26.72,45.53,47.38,44.19C102.8,144.52,82.76,107.11,62.82,107.11Z"/><path class="cls-1" d="M79.17,13.6c0-2.36.31-5.55,2.67-5.55S83,16.17,83.69,21.41c3.6,4.42,9.25,5,9.25,11.41,0,7.09-2,14.7-4.11,22.1a9.93,9.93,0,0,0,6.37-2.57l.31.41c-.1,2.26-4.83,4.93-7.81,5.65C85,66.94,82.46,75,82.46,81.43c0,1.64.82,3.49,2.46,3.49,5.24,0,9-12.23,9.77-14.49h.92c-1.85,6.79-5.75,19-15.31,19-3.8,0-6.68-2.26-6.68-7.19,0-5.75,3.08-14.49,6.37-23.43L71.67,59C62.93,75.47,50,88.83,33.33,88.83c-11.81,0-20.76-8.22-20.76-22.82,0-18.29,17.37-33.5,32.89-33.5,7.19,0,14.7,4.11,14.7,11.31a33.3,33.3,0,0,1-.52,4.52H58.41a28.75,28.75,0,0,0,.41-4.11c0-5.45-7.5-9.46-14.18-9.46-13.67,0-29.5,13.46-29.5,29.39,0,11.41,8.12,20.56,20,20.56,16.14,0,28.47-14.7,34.53-25.59V59l-7.5.2c-3.49.1-6.16,1.34-7.6,3.91l-.93-.41A12.12,12.12,0,0,1,64.88,55h7C78.14,42.27,81,28.71,81.43,22.44,80.5,19,79.17,17.2,79.17,13.6Zm2.26,41.32c3.49-9.46,6.88-18.61,6.88-24,0-3.19-2.15-6.27-4.11-6.27a1.46,1.46,0,0,0-1.13.72A114.84,114.84,0,0,1,73.72,55Z"/><path class="cls-1" d="M27.13,165.07c-2.26,1.65-3.8,3.29-3.8,6.37,0,3.8,2.26,6.89,6.27,6.89,9.66,0,17.16-15.72,17.16-24.26,0-5-2.36-9.24-7.81-9.24-17.27,0-37,33.6-37,56.72,0,10.18,5.24,21.38,16.55,21.38,18.5,0,30.11-25.18,32.06-40.08.82,2,2.47,5.14,2.47,7.3,0,4.21-3.08,10.48-4.52,13.46-6,12.23-16.24,21.68-29.81,21.79C5.86,225.5,0,213.78,0,201.86c0-23.63,20.25-59.19,41.11-59.19,7.71,0,12,5.75,12,13.05,0,11.61-8.12,29.08-21.48,29.08-5.55,0-10.48-4.31-10.48-10A12.63,12.63,0,0,1,27.64,164Z"/><path class="cls-1" d="M114.54,86c.93-.82,3.7-1.85,3.7-5.86s-3.19-6.78-7.3-6.78c-5.24,0-7.81,4.93-7.81,9.76,0,14,21,27.75,21,49.95,0,16.65-8.74,27.85-25.38,30.93-2.06,5.76-6.58,9.56-13.16,9.56a15.74,15.74,0,0,1-6.68-1.95l-.1-.72a18.27,18.27,0,0,0,7,1.54A12.17,12.17,0,0,0,97.28,164c-21.69.62-48-23.43-48-45.63,0-7.5,5.24-15.21,13.26-15.21,22.82,0,40.9,36.59,36.59,59.3,11.61-2.16,20.55-10,20.55-22.4,0-18.71-21.68-33.71-21.68-52.31,0-7.92,7.09-16.65,15.31-16.65,3.9,0,7.81,3.29,7.81,7.3s-3.39,6.88-6.58,8.42ZM61.82,106.11c-6.68,0-11.51,6-11.51,12.23,0,22.1,26.72,45.53,47.38,44.19C101.8,143.52,81.76,106.11,61.82,106.11Z"/><circle class="cls-1" cx="200.96" cy="17.2" r="17.2"/><circle class="cls-1" cx="176.6" cy="167.88" r="17.2"/><circle class="cls-1" cx="379.57" cy="59.37" r="17.2"/></svg>