<?xml version="1.0" encoding="UTF-8"?>
<svg id="Layer_2" data-name="Layer 2" xmlns="http://www.w3.org/2000/svg" viewBox="0 0 276.28 272.8">
  <defs>
    <style>
      .cls-1 {
        fill: #fe858f;
      }
    </style>
  </defs>
  <g id="Layer_1-2" data-name="Layer 1">
    <g id="Generative_Object" data-name="Generative Object">
      <path class="cls-1" d="M117.62.11c3.35.43,6.92,1.5,9.96,2.97,6.24,3.02,13.23,4,19.65.65l1.45-.57c3.26-1.29,6.55-2.47,9.99-3.13,3.61-.26,6.85,1.15,9.97,2.92,0,.17.09.41.24.52s.56.13.69.15l9.47,8.24,3.52,1.97c2.11,1.18,4.61.97,7.15.98l10.92.06c3.38.02,6.55,1.4,8.85,3.55,1.71,1.6,3.25,3.61,4.43,5.64,5.28,9.12,4.68,12.58,16.27,16.72,3.49,1.25,7.09,2.13,10.39,3.8.05.21.28.24.44.35,3.31,2.2,5.65,5.59,6.28,9.5l1.78,10.98c.67,4.13,2.51,7.57,5.51,9.98l5.89,4.74c2.12,1.7,4.3,3.63,5.92,5.85,1.91,2.63,2.9,6.3,2.37,9.47l-1.66,9.97c-.61,3.65-1.23,7.28.29,10.69,1.05,2.35,2,5,3.82,6.94.26,1.24,1.22,2.28,1.86,3.41,1.74,3.07,3.2,6.39,3.21,9.95s-1.44,6.96-3.28,10.02l-2.39,4-3.37,6.06c-1.74,3.14-.84,6.99-.27,10.5l1.69,10.45c.58,3.57-.66,6.96-2.66,10.01l-9.32,8.03c-4.21,3.63-7,7.74-7.87,13.13l-1.4,8.68c-.68,4.21-3.3,8.17-6.72,10.7l-.71.53-9.83,3.69c-5.27,1.42-9.59,4.04-12.3,9.05l-3.91,7.22c-1.16,2.14-2.55,4.2-4.31,5.87-2.62,2.49-6.13,4.04-10.02,3.95l-9.49-.22c-2.18-.05-4.15-.05-6.03.37s-3.55,1.37-4.99,2.59l-9.48,8-1,.81c-2.73,2.22-6.47,3.34-10.04,2.87s-6.97-2.01-10.39-3.3c-7.07-2.68-11.27-4.01-19.17-.34l-1.5.7c-3.1,1.44-6.54,2.59-9.97,2.98-3.7.43-7.4-1.12-10.32-3.26-.19-.14-.41-.38-.64-.47l-6.59-5.95-2.83-2.08c-1.26-.93-2.51-1.61-3.97-2.15-1.96-.73-4.18-.79-6.58-.78l-10.99.07c-3.47.02-6.53-1.28-8.84-3.58-1.63-1.63-3.04-3.58-4.18-5.63-2.09-3.76-3.77-7.86-6.69-11.26-2.62-3.05-6.31-4.25-9.86-5.56l-9.53-3.53c-4.31-2.15-6.77-6.11-7.5-10.63l-1.65-10.15c-.69-4.23-2.44-7.8-5.6-10.37l-6.63-5.4c-1.73-1.41-3.45-3.01-4.82-4.73-2.21-2.78-3.37-6.38-2.75-9.86l1.87-10.49c.83-4.67.68-9.18-1.89-13.46l-4.28-7.11C1.45,143.35,0,139.99,0,136.47c0-3.6,1.46-6.94,3.29-9.99l2.05-3.4c1.29-2.14,2.6-4.28,3.53-6.59,1.4-3.46,1.21-7.03.46-10.65-.71-3.43-1.5-6.88-1.76-10.41s.46-7.21,2.68-9.86c6.6-7.92,15.51-9.85,17.17-20.81l1.57-10.35c.76-5.04,4.29-9.1,9.29-10.81l8.39-2.87c4.99-1.71,9.21-4.51,11.88-9.4l3.76-6.91c1.15-2.12,2.59-4.18,4.35-5.83,2.81-2.62,6.58-3.88,10.39-3.81l11.07.21c3.73.07,6.97-1.16,9.56-3.36l9.07-7.71.95-.8c2.99-1.87,6.32-3.47,9.95-3Z"/>
    </g>
  </g>
</svg>